<svg width="36" height="36" viewBox="0 0 36 36" fill="none" xmlns="http://www.w3.org/2000/svg">
<path d="M11.457 25.51C11.9068 25.829 12.4443 26.001 12.9957 26.0024C13.5472 26.0039 14.0855 25.8346 14.537 25.518C14.942 25.23 15.26 24.836 15.454 24.379L16.69 20.61C16.9922 19.7015 17.5021 18.876 18.179 18.199C18.856 17.5221 19.6815 17.0122 20.59 16.71L24.221 15.527C24.742 15.3432 25.1933 15.0024 25.5124 14.5514C25.8316 14.1004 26.003 13.5615 26.003 13.009C26.003 12.4565 25.8316 11.9176 25.5124 11.4666C25.1933 11.0156 24.742 10.6748 24.221 10.491L20.521 9.298C19.6154 8.99516 18.7923 8.48644 18.1165 7.81183C17.4407 7.13721 16.9305 6.31507 16.626 5.41L15.447 1.781C15.2635 1.25983 14.9224 0.808657 14.471 0.489997C14.0176 0.176663 13.4796 0.00882721 12.9285 0.00882721C12.3774 0.00882721 11.8394 0.176663 11.386 0.489997C10.9265 0.815394 10.5812 1.27724 10.399 1.81L9.206 5.477C8.90305 6.35895 8.40406 7.16074 7.74657 7.82204C7.08908 8.48335 6.29019 8.98696 5.41 9.295L1.783 10.473C1.25918 10.6575 0.805936 11.0008 0.486382 11.455C0.166828 11.9093 -0.00313188 12.4518 0.000169263 13.0072C0.0034704 13.5625 0.179868 14.1031 0.504799 14.5535C0.829731 15.0038 1.28702 15.3417 1.813 15.52L5.4 16.685C6.30893 16.9897 7.13458 17.5016 7.81176 18.1802C8.48894 18.8588 8.99911 19.6854 9.302 20.595L10.482 24.218C10.665 24.739 11.006 25.191 11.458 25.51H11.457ZM13.162 23.388L13.1 23.469C13.07 23.4878 13.035 23.4973 12.9996 23.4962C12.9642 23.4951 12.9298 23.4836 12.901 23.463C12.8805 23.4491 12.8629 23.4315 12.849 23.411L11.679 19.811C11.2578 18.5291 10.5412 17.3641 9.587 16.41C8.63042 15.4552 7.46464 14.7362 6.182 14.31L2.613 13.156C2.57974 13.1431 2.55092 13.1209 2.53 13.092C2.50937 13.0628 2.49884 13.0277 2.5 12.992C2.5 12.956 2.512 12.922 2.532 12.892C2.54638 12.8722 2.56395 12.855 2.584 12.841L6.204 11.666C7.46574 11.2289 8.60995 10.5073 9.548 9.557C10.4598 8.62851 11.1524 7.50781 11.575 6.277L12.763 2.616C12.7748 2.58229 12.7968 2.55313 12.8261 2.53267C12.8553 2.51221 12.8903 2.50148 12.926 2.502C12.9566 2.50188 12.9868 2.50964 13.0136 2.52452C13.0404 2.53941 13.0629 2.56092 13.079 2.587L14.251 6.187C14.6775 7.462 15.394 8.6207 16.344 9.572C17.2994 10.5259 18.4633 11.2448 19.744 11.672L23.344 12.84L23.41 12.859C23.4337 12.8711 23.4543 12.8885 23.47 12.91C23.49 12.94 23.5 12.974 23.5 13.01C23.5 13.046 23.49 13.08 23.47 13.11C23.4557 13.1286 23.4393 13.1454 23.421 13.16L19.811 14.331C18.5317 14.7554 17.3693 15.4728 16.4163 16.426C15.4634 17.3791 14.7462 18.5417 14.322 19.821L13.162 23.388ZM26.876 34.642C27.205 34.875 27.597 35 28 35.001L28.005 35.004C28.4127 35.0037 28.8101 34.8754 29.141 34.6371C29.4718 34.3988 29.7195 34.0626 29.849 33.676L30.418 31.926C30.5348 31.5768 30.7309 31.2595 30.991 30.9989C31.2511 30.7382 31.5681 30.5415 31.917 30.424L33.707 29.842C33.9904 29.7415 34.2466 29.5768 34.4557 29.3607C34.6648 29.1447 34.8209 28.8831 34.912 28.5966C35.0031 28.31 35.0265 28.0063 34.9805 27.7092C34.9346 27.4121 34.8204 27.1296 34.647 26.884C34.4 26.5382 34.0472 26.282 33.642 26.154L31.885 25.585C31.5358 25.4684 31.2185 25.2722 30.9581 25.0119C30.6978 24.7515 30.5016 24.4342 30.385 24.085L29.803 22.296C29.6688 21.9134 29.4182 21.5823 29.0864 21.3491C28.7547 21.1159 28.3583 20.9923 27.9528 20.9957C27.5473 20.999 27.153 21.129 26.825 21.3675C26.4971 21.6061 26.252 21.9412 26.124 22.326L25.552 24.083C25.4386 24.4269 25.2481 24.7404 24.9951 24.9995C24.7421 25.2586 24.4332 25.4565 24.092 25.578L22.302 26.16C21.92 26.2946 21.5896 26.5451 21.3569 26.8766C21.1243 27.208 21.0009 27.6039 21.0041 28.0088C21.0073 28.4138 21.1369 28.8077 21.3748 29.1354C21.6126 29.4632 21.947 29.7085 22.331 29.837L24.083 30.407C24.433 30.5238 24.751 30.7209 25.0114 30.9823C25.2718 31.2438 25.4676 31.5625 25.583 31.913L26.165 33.701C26.299 34.081 26.547 34.41 26.875 34.642H26.876ZM24.86 28.04L24.742 28.001L24.882 27.952C25.5933 27.7065 26.2382 27.2997 26.7661 26.7635C27.294 26.2272 27.6907 25.5761 27.925 24.861L27.965 24.74L28.005 24.868C28.2441 25.5882 28.6482 26.2425 29.185 26.7788C29.7218 27.3152 30.3766 27.7186 31.097 27.957L31.253 28.007L31.132 28.047C30.4108 28.2859 29.7555 28.6903 29.2184 29.2277C28.6814 29.7651 28.2775 30.4206 28.039 31.142L27.999 31.263L27.959 31.14C27.7204 30.417 27.3156 29.76 26.7773 29.2217C26.239 28.6834 25.582 28.2786 24.859 28.04H24.86Z" fill="white"/>
</svg>
